<svg width="25" height="23" viewBox="0 0 25 23" fill="none" xmlns="http://www.w3.org/2000/svg">
    <g clip-path="url(#clip0_83_3885)">
        <path fill-rule="evenodd" clip-rule="evenodd" d="M0.720159 0C0.379248 0 0.102875 0.276373 0.102875 0.617284V13.2716C0.102875 13.6125 0.379248 13.8889 0.720159 13.8889H7.81892C8.15983 13.8889 8.43621 13.6125 8.43621 13.2716V7.56173H10.9053V15.8951C10.9053 16.4917 11.389 16.9753 11.9856 16.9753H13.8374V17.6944L15.1523 16.358L13.8374 15.0216V15.7407H12.1399V7.40741C12.1399 6.8108 11.6563 6.32716 11.0597 6.32716H8.43621V0.617284C8.43621 0.276373 8.15983 0 7.81892 0H0.720159ZM1.64608 1.54321V12.3457H6.893V1.54321H1.64608Z" fill="white"/>
        <path fill-rule="evenodd" clip-rule="evenodd" d="M15.7407 7C15.3317 7 15 7.31838 15 7.71111V22.2889C15 22.6816 15.3317 23 15.7407 23H24.2593C24.6683 23 25 22.6816 25 22.2889V7.71111C25 7.31838 24.6683 7 24.2593 7H15.7407Z" fill="white"/>
    </g>
    <defs>
        <clipPath id="clip0_83_3885">
            <rect width="25" height="22.8395" fill="white"/>
        </clipPath>
    </defs>
</svg>
