<svg width="56" height="57" viewBox="0 0 56 57" fill="none" xmlns="http://www.w3.org/2000/svg">
    <g clip-path="url(#clip0_78_3836)">
        <path fill-rule="evenodd" clip-rule="evenodd" d="M9.39217 0.680298H46.6084C51.5113 0.680298 55.5179 4.73076 55.5179 9.68768V47.3129C55.5179 52.2696 51.5115 56.3203 46.6084 56.3203H9.39217C4.48931 56.3203 0.482697 52.2698 0.482697 47.3129V9.68768C0.482697 4.73094 4.48913 0.680298 9.39217 0.680298ZM13.6103 27.1757V29.8247H26.6899V43.0481H29.3102V29.8247H42.3898V27.1757H29.3102V13.9523H26.6899V27.1757H13.6103ZM46.6083 3.32953H9.39199C5.93478 3.32953 3.10295 6.19248 3.10295 9.68768V47.3129C3.10295 50.8081 5.93478 53.6711 9.39199 53.6711H46.6083C50.0655 53.6711 52.8973 50.8081 52.8973 47.3129V9.68768C52.8973 6.19248 50.0655 3.32953 46.6083 3.32953Z" fill="#00D9FF"/>
    </g>
    <defs>
        <clipPath id="clip0_78_3836">
            <rect width="56" height="56" fill="white" transform="translate(0 0.5)"/>
        </clipPath>
    </defs>
</svg>
